<svg xmlns="http://www.w3.org/2000/svg" viewBox="0 0 64 64">
  <defs>
    <radialGradient id="bg" cx="50%" cy="35%" r="75%">
      <stop offset="0%" stop-color="#2e365a" />
      <stop offset="100%" stop-color="#12182f" />
    </radialGradient>
    <linearGradient id="petal" x1="0%" y1="0%" x2="100%" y2="100%">
      <stop offset="0%" stop-color="#ff8ab7" />
      <stop offset="100%" stop-color="#ff5f9f" />
    </linearGradient>
  </defs>
  <rect x="4" y="4" width="56" height="56" rx="14" fill="url(#bg)" />
  <g
    transform="translate(32 32) scale(2.1) translate(-12 -12)"
    fill="none"
    stroke="url(#petal)"
    stroke-width="2.3"
    stroke-linecap="round"
    stroke-linejoin="round"
  >
    <path d="M12 5c-1.8 0-3 1.2-3 3s1.2 3 3 3 3-1.2 3-3-1.2-3-3-3Z" />
    <path d="M12 3c1.6-2.3 5-1.5 5.4 1.3.2 1.3-.4 2.6-1.6 3.4" />
    <path d="M19.4 8.7c2.8-.4 4.6 2.6 2.9 5-.8 1.1-2.1 1.7-3.5 1.6" />
    <path d="M18.8 15.3c1.7 2.3-.1 5.4-3 5.1-1.3-.1-2.4-.9-2.9-2.1" />
    <path d="M11.3 18.3c-.7 2.7-4.2 3.4-6 .8-.9-.9-1.3-2.2-.9-3.4" />
    <path d="M6.2 14.9c-2.8.8-5.1-2-3.9-4.6.6-1.2 1.7-2 3.1-2.1" />
    <path d="M6.2 8.2C4 6.5 4.6 3 7.2 2.3c1.3-.3 2.7.1 3.6 1.1" />
  </g>
</svg>
